<svg version="1" xmlns="http://www.w3.org/2000/svg" width="2094.667" height="2094.667" viewBox="0 0 1571.000000 1571.000000"><path d="M845 182.6c-100.1 27.9-183.4 58.4-239 87.6-47.3 24.8-77.5 48.7-91.5 72.6l-4.2 7.2-22.4-16.1C430 292.1 379.1 252.8 363.6 238l-8.9-8.5.7 13.5c.3 7.4 1.9 43 3.6 79 1.6 36 3.2 71.2 3.6 78.2.3 7.1.3 12.8 0 12.8-1 0-42.6-25.7-62-38.3-52.6-34.2-83.7-58.3-93.1-72.2l-2.7-4 .6 6c.3 3.3 1.8 18.1 3.1 33 8.4 88.6 18.6 155.7 28.1 183 1.9 5.5 3.6 10.9 3.7 11.9.4 4-38.1 22.7-67.8 32.9-26.2 8.9-49.3 13.8-72.8 15.3l-10.8.7 10.3 5.5c40.7 21.6 62.2 33.5 66.6 36.8 2.8 2.2 10.8 7 17.9 10.8 23.8 12.9 37.7 21.6 34.4 21.6-2.9 0-85.2 15.1-161.6 29.6-35.7 6.8-33.1 6.1-30.9 8.5 3.1 3.4 16.6 11.5 38 22.8 11.5 6 23.4 12.9 26.4 15.2 9.3 7.1 66.3 34.3 146.5 69.9 34.4 15.3 40.5 18.1 40.5 18.9 0 .4-2.1 1.9-4.8 3.5-6.5 4.1-25.1 23-34.9 35.6-13.2 17-47.3 68.9-47.3 71.9 0 .4 9.1 4.2 20.3 8.5 17.1 6.6 20.8 8.4 24.2 11.8 4.8 4.8 8.4 6.7 28.8 14.8 8.6 3.5 15.7 6.6 15.7 7.1 0 .4-2.8 4.5-6.2 9.1-7.4 9.8-22.5 25.3-28.6 29.3-2.3 1.5-4.1 2.9-4 3.1.2.1 3-.4 6.3-1.2 6.9-1.7 28.7-2.2 41.7-1 8.4.7 8.7.9 9.3 3.5.7 3.3 4.9 7.5 8.9 9.1 1.5.5 10.5 2.4 19.8 4 9.4 1.7 17.7 3.4 18.4 3.8 1.4.8-7.4 11.8-37.3 46.9-5.7 6.8-10.2 12.3-9.9 12.3.3 0 2.7-1.4 5.3-3 10-6.4 33.7-13.2 50.7-14.6l7.6-.7v4.5c0 8.9 5.4 10.3 31.9 8.8 10.2-.6 26.7-1 36.6-.8l18 .3-.5 3c-.3 1.6-.5 6.6-.4 11 .2 15.1 6.1 26.1 23.9 44.4 20.8 21.5 42.3 38.2 86.5 67.6 102 67.7 187.2 114.7 244.1 134.6 16.1 5.6 37.8 11.1 53.9 13.6 15.8 2.4 50 2.4 65.7-.1 30.4-4.7 57.6-13.7 88-29 77.5-39.1 141.8-104.6 180.2-183.7 9.1-18.8 14-31.6 18.2-47.3 5.1-19.7 6.1-29.1 5.7-59.1-.3-26.1-.2-27.1 1.9-31.1 1.2-2.2 4-5.7 6.2-7.7 6.2-5.6 13.8-7.5 35.4-8.7 10-.5 20-1.5 22.1-2.1 4.9-1.4 9.6-5.9 9.6-9.3v-2.5l11.1-.3 11.2-.3-13.2-9.3c-7.2-5.1-13.1-9.5-13.1-9.8 0-.3.7-1.8 1.5-3.4 1.9-3.8 5.6-6.3 14-9.6 3.9-1.5 8.5-3.8 10.3-5.2 3-2.2 3.3-2.9 3-6.3l-.4-3.9h12.1c19 0 19 .2.3-11-26.9-16.2-35.3-22.1-35.6-25.2-.9-7.4 7.8-16.2 26.2-26.2 14.8-8.1 19.6-12.6 19.6-18.4 0-2-.9-5.2-2-7l-2-3.2 2.2-.9c1.3-.5 3.9-1.2 5.8-1.6l3.5-.8-7.5-6.9c-4.1-3.9-12.3-10.8-18.2-15.5-7-5.5-10.8-9.2-10.8-10.4 0-3.9 8.2-10.4 21.2-16.7 13.4-6.5 18.7-11 18.9-16 .1-1.5.2-4.3.3-6.1.1-3.4.2-3.5 6.1-4.8 3.3-.6 8.4-1.2 11.3-1.3 5.4 0 6.3-1.3 1.7-2.4-1.3-.3-5.9-2.2-10.1-4.1l-7.7-3.5 2.4-2.6c4.3-4.6 11.8-7.5 29.7-11.5 25.9-5.8 29.1-8.2 26.1-19.9-.3-1.1 1.4-1.7 7-2.7 4.1-.7 7.6-1.4 7.8-1.7.3-.2-9.6-8-21.9-17.2-28.3-21.3-47.5-39.5-52-49.4-11.3-24.9-12.6-40.1-4.1-49.9 8.6-10.1 16.8-12.2 72.8-18.1 33.1-3.5 43.4-5.2 47.8-7.8 3.6-2 4.6-5.7 2.6-9.3l-1.1-2.2 19.8.5c10.8.3 19.1.2 18.3-.2-.8-.4-52-27.9-113.9-61-136.3-73-150.6-80.7-154.7-83.2-3.2-1.9-3.2-2-1.8-4.7 2-4 7.4-8.4 13.8-11.5 7.2-3.4 31.5-10.6 67.2-20.1 71.8-19 75.5-20.1 79.6-25.3 1.7-2.2 1.8-2.8.6-4.6-.7-1.2-3.2-3.1-5.5-4.2l-4.2-2.2 13.3-2.5c16.2-3.2 33.8-5.5 47.7-6.5l10.5-.7-21-4.8c-72.2-16.6-145.7-28.4-212.5-34.3-35.7-3.1-110.9-2.9-132.5.3l-4 .6 2-2.2c1.1-1.3 9-7.6 17.5-14.1 8.6-6.5 17.9-14.4 20.8-17.4 8.5-9 6.9-11.8-7.2-12.6l-9.1-.5 14-9.1c21.3-13.8 38.7-24.1 52.3-31.1 6.8-3.5 12.1-6.3 11.7-6.3-1.5 0-46.2 8.5-84.5 16.1-98.6 19.5-181.4 38.2-239 53.9-19.1 5.1-31.7 8.9-62.7 18.6-2.4.7-4.3 1-4.3.6 0-1.5 7.6-13.2 17.9-27.7 11.9-16.6 15.7-22.8 17.1-27.5 2-7-2.9-10.7-12.6-9.5l-5.7.7 2.1-2.9c4.2-6 21.3-25.2 26.9-30.3 3.2-2.9 8.4-7.3 11.7-9.7 3.2-2.4 5.2-4.3 4.5-4.2-.8 0-7 1.6-13.9 3.5zM412.4 589.7c21.4 11.9 65.4 33.9 83.3 41.6 19.4 8.4 37.3 14.9 49.8 18.1 9.9 2.4 22.5 4.3 22.5 3.3 0-.2-7.1-6.9-15.7-14.8-35-32-60.3-57.4-60.3-60.5 0-1.6 1.5-.9 45.5 20.4 39.9 19.3 78.6 37.1 104.8 48.3 21.3 9.1 42.2 16.7 43.2 15.7.3-.3-5.8-17-13.6-37.2-7.8-20.2-13.9-36.9-13.5-37.3.3-.4 56.5 12.3 124.8 28 68.3 15.8 124.3 28.5 124.4 28.4.2-.2-8.4-11.3-19-24.7-10.7-13.5-19.3-24.6-19.1-24.8.2-.2 14.6 4.4 32.2 10.1 74.5 24.6 142.5 44.4 202.3 59l17.4 4.2 7.8 15c35.9 69.5 40.9 123.8 14.8 162.6-9.8 14.5-27.9 29.2-47.1 38.3-19.6 9.3-48.2 17.8-59.4 17.8-3.5-.1-5.4.2-4.6.7.8.5-2.8 1.4-9 2.2-9.8 1.3-10.2 1.4-5.9 2.1 23.9 3.9 32.1 5.5 42.5 8.4 15.6 4.4 30.1 10.1 45 17.7 14.3 7.3 22.9 15.1 32.2 29.2 29.1 44.5 26.3 103.6-8.3 172.6-36.9 73.7-102.6 139.8-172.9 174-64.8 31.6-127.7 31.7-200.9.4-33.9-14.5-81-41.1-127.1-72-51.9-34.7-82.9-58.9-106.5-83.1-26.9-27.7-37.1-47.7-34.2-67.4 1.4-10 4.4-17.6 10.3-26.4 14.1-21.2 42.6-42.4 86.6-64.6 11.4-5.8 15-8 12.9-8-4.6 0-23.1-6.6-35.5-12.7-14.1-7-31.5-18.4-44.1-29.1-80.1-67.3-124.5-186.2-129.6-347.6l-.7-22 4.8 2.9c2.7 1.5 11.6 6.6 19.9 11.2zm791.3 214.4c51.9 12.6 64.2 24.8 37.7 37.4-12.5 6-45.4 14.3-72.4 18.4-4.1.7-8.6 1.4-10 1.7-2.3.4-2.4.3-.5-.7 9.9-5.7 18.1-22.4 21.9-44.8.9-5.2 1.6-11 1.6-12.9v-3.5l4.4.6c2.4.4 10.2 2 17.3 3.8zm-792.2 35.4c5.4 26.3 11.5 48.4 15.6 56.7 1.3 2.5 1.5 3.6.7 3.3-.7-.2-6.9-2-13.8-4.1-32.9-9.6-64.6-23.6-75.2-33.2-8-7.3-8.6-11.8-2.4-17.7 4.9-4.8 14.7-8.8 30.6-12.5 11.6-2.7 40.3-7 41.1-6.1.4.3 1.9 6.4 3.4 13.6z"/><path d="M496.6 726.2c-.3 2.4-.7 11.8-.9 21l-.4 16.6 8.3.7 8.4.7v4.7c0 2.5.9 8.3 2 12.8 4 16.7 12.5 31.2 26.4 44.9 19.5 19.1 45.7 32.4 77.5 39.1 11.6 2.5 14.5 2.7 36.1 2.8 24.7 0 30-.6 48.5-5.2 50.2-12.5 88-46.7 94.9-85.8l1.2-7 1.3 6.5c5 25.3 20.4 47.3 45.4 64.4 16.3 11.1 41.6 21.1 64.2 25.2 12.6 2.3 50.7 2.7 62.5.6 36.7-6.6 64.8-20.2 86.2-41.6 16-16 25.3-34.8 27.4-55.3.6-5.7.9-6.2 3.3-6.5 2.1-.2 2.7-.9 2.9-3.6.3-3.1.4-3.2 5.4-3.2h5l-.7-17.8c-.4-9.7-.8-17.8-.9-17.9-.1-.1-8.3 1.3-18.1 3.2-106.4 20.1-274.1 26.8-423 17-56.3-3.8-115.5-10.9-151.9-18.5-5.4-1.1-10-2-10.1-2-.2 0-.6 1.9-.9 4.2zm94.4 40.3c15.7.4 61.5 1 101.8 1.5 40.4.4 73.6 1.1 73.9 1.4 1.1 1.1-2.8 17.9-5.8 25.1-9.4 22.7-32.1 43.8-57.3 53.6-15.8 6.1-25.6 8.1-43.2 8.6-25.3.8-43.6-3-64.2-13.7-29.4-15.1-49.8-42.7-51.9-70.1l-.6-8 9.4.5c5.2.3 22.2.8 37.9 1.1zm463 2c0 5.9-3 18.6-6.2 26.4-4.5 10.7-11.4 20.5-21.5 30.2-14.3 13.8-31.1 22.9-52.3 28.4-14.3 3.7-37.8 4.6-53.1 2-41.3-6.9-74.8-32.6-86-65.9-1.5-4.6-3.1-11-3.4-14.3l-.7-6.1 21.3-.6c11.8-.3 48.9-.8 82.4-1.2 51.2-.6 95.9-1.4 115.3-2.2 4.2-.2 4.2-.2 4.2 3.3z"/><path d="M642.7 822c-1.4 1.1-3.1 3.6-3.7 5.5-2.6 7.8 5.7 15.3 13.4 12.1 7.8-3.2 8.9-12.4 2.2-17.8-2.9-2.4-8.7-2.3-11.9.2zM936.9 821.5c-3.6 2-5.5 6.7-4.3 11.2 2.4 9.6 16.3 10.1 19.4.8 3-9.1-6.5-16.7-15.1-12zM770.5 886.4c-5.7 5.7-10.9 20.6-14.4 41.7-3.7 22-6.3 51.9-4.5 51.9.4 0 2.8-1.6 5.5-3.6 4.7-3.4 4.9-3.8 4.9-8.4 0-13.6 4.5-41.7 9-56.3 1.7-5.5 2.7-7.2 5.3-8.7 5.8-3.6 11.8-2 20.4 5.5 4.6 3.9 16.6 19.5 22.5 29.3l3.7 6.1 5.3-1.6c2.9-.8 5.6-1.7 6.1-2 1.4-.9.6-3.1-3.2-9-4.6-7.1-15.8-19.2-32.9-35.4L785.6 884h-6.3c-5.4 0-6.8.4-8.8 2.4zM840.2 1094.1c-24.8 1.3-50.5 5.8-76.7 13.4-25.7 7.5-31.5 9.9-37.7 16-5.5 5.4-7.8 9.5-5.3 9.5.7 0 2.9-.7 5-1.5 11.7-4.9 41.7-12 64-15.2 18.5-2.5 60.4-2.6 76 0 35 5.8 69.3 18.4 93.8 34.5 3.7 2.4 7 4.2 7.3 3.9 1.3-1.3-16.7-25.3-34.7-46.3l-8.7-10.1-14.8-1.7c-13.7-1.6-45.5-3.7-51.4-3.4-1.4 0-8.9.4-16.8.9zM1189.1 816.4c.3.3 4.7 1.4 9.8 2.6 17.2 3.8 25 7.5 23.6 11.2-.9 2.2-9.1 5.6-18.3 7.5-6.8 1.3-8 1.9-9.8 4.7l-2 3.2 12-3.4c26-7.3 28.6-8.4 28.6-12.2 0-6.4-21.9-14-40.4-14-2.2 0-3.7.2-3.5.4zM387.6 838.1c-23.2 1.9-35.6 6.8-35.6 14.1 0 2.8 5.4 9.9 9.1 11.9 1.5.8 1.4.2-.6-3.3-1.4-2.4-2.5-5-2.5-5.9 0-2.1 2.8-4.5 6.4-5.3 3.8-.9 25.4-.8 33.4.2 7 .9 6.8 1.2 5.6-8.2-.8-5.2.9-4.9-15.8-3.5z"/></svg>