
<svg xmlns="http://www.w3.org/2000/svg" viewBox="0 0 430.66 196.96">
    <g id="Layer_1-2" data-name="Layer 1">
        <path fill="#ffffff" opacity="0.4" d="M266.34,88.65s-31.6-37.89-64.11,0c0,0-14.23,20,9.27,39.84,0,0-71.73-19.89-81.26,22.42,0,0-111.51,7.29-130.25,21.76,0,0,1.74,8.7,73.11,5.22,0,0,75.35,12.29,116,13.11,0,0,82.44-1.79,98.11-9.63,0,0,80.08,29.59,115.76-2.61s9.75-46.48,7.83-52.66c0,0,33.94-33.55,0-51.81,0,0-1.48-71-56.47-40.64,0,0-31.21-62-77.89-17.66,0,0-24.92-17.59-37.11,13.4C239.36,29.4,225.43,67.3,266.34,88.65Z"/>
        <path fill="#ffffff" opacity="0.4" d="M271.09,91.82s-31.6-37.89-64.11,0c0,0-14.23,20,9.27,39.84,0,0-71.73-19.89-81.26,22.42,0,0-111.51,7.29-130.25,21.76,0,0,1.74,8.7,73.11,5.22,0,0,75.35,12.29,116,13.11,0,0,82.44-1.79,98.11-9.63,0,0,80.08,29.59,115.76-2.61s9.75-46.48,7.83-52.66c0,0,33.94-33.55,0-51.81,0,0-1.48-71-56.47-40.64,0,0-31.21-62-77.89-17.66,0,0-24.92-17.59-37.11,13.4C244.11,32.57,230.18,70.47,271.09,91.82Z"/>
    </g>
</svg>
