<svg xmlns="http://www.w3.org/2000/svg" viewBox="0 0 159.05 73">
    <g id="Layer_1-2" data-name="Layer 1">
        <path fill="#ffffff" opacity="0.4" d="M111.44,17.68c-20.57-37.48-49.8-4.43-50,0,0,0-24.39-11.06-19.9,11.66a23.49,23.49,0,0,0,.55,3.83S2.92,14.64,0,43.13c2.64,25.86,48.42,10,48.42,10v.43A14.92,14.92,0,0,0,63.26,68.57h7.83A14.69,14.69,0,0,0,85.71,57.51s42.78,11.62,29.36-12.77A15.8,15.8,0,0,0,114,39.81h33c6.62,0,12-4.93,12-11.06S133.33,6,111.44,17.68Z"/>
        <path fill="#ffffff" opacity="0.4" d="M111.44,22.11c-20.57-37.48-49.8-4.43-50,0,0,0-24.39-11.06-19.9,11.66a23.49,23.49,0,0,0,.55,3.83S2.92,19.07,0,47.55c2.64,25.86,48.42,10,48.42,10v.43A14.92,14.92,0,0,0,63.26,73h7.83A14.69,14.69,0,0,0,85.71,61.94s42.78,11.62,29.36-12.77A15.8,15.8,0,0,0,114,44.24h33c6.62,0,12-4.93,12-11.06S133.33,10.42,111.44,22.11Z"/>
    </g>
</svg>
