<svg xmlns="http://www.w3.org/2000/svg" viewBox="0 0 142.72 112.4">
    <g>
        <path fill="#ffffff" opacity="0.4" d="M29.36,32.46c6.65-32.8,23.82-10,23.82-9.94V19.86c1.47-22.17,42.57-30.47,45.51,0v8.66s.54-2.94,5.3-4.18,11.18.48,11.18.48c6.18,0,12,8.48,12,15.51,0,0,1.77,10.14-3.4,15.81,6.15-4.75,8.26-3.95,8.26-3.95,6.18,0,10.75,5,10.75,12v7.68c-4.4,27.66-26.42,13.85-26.42,13.85v6.62c-5.87,24.33-35.65,17.06-35.65,17.06-7.21,0-14.58-7.15-11.74-18-5.09,3.45-19,4.19-19,4.19-8.24,0-15.28-8.13-14.94-16.89C-26.79,65,17.17,18.49,29.36,32.46Z"/>
        <path fill="#ffffff" opacity="0.4" d="M26.53,34.44c6.65-32.8,23.71-10,23.71-9.94V21.84c2.94-22.17,42.57-30.47,45.51,0v8.66s.65-2.94,5.4-4.18,11.24.48,11.24.48c6.18,0,12,8.47,12,15.51,0,0,1.79,10.14-3.39,15.81,6.15-4.75,8.89-3.95,8.89-3.95,6.18,0,11.39,5,11.39,12v7.67c-5.87,27.66-27.89,13.85-27.89,13.85v6.62c-7.34,24.33-35.54,17.06-35.54,17.06-7.21,0-14.52-7.15-11.68-18-5.09,3.45-19,4.19-19,4.19-8.24,0-15.32-8.13-15-16.89C-29.57,67,14.35,20.46,26.53,34.44Z"/>
    </g>
</svg>
