<svg xmlns="http://www.w3.org/2000/svg" viewBox="0 0 228.4 91.73">
    <g>
        <path fill="#ffffff" opacity="0.4" d="M1,45.32s20.7-32,58.52-5.28c0,0-21.9-29.27,10.35-39.12,0,0,40.61-7.86,43.39,22.2,0,0,26.67-38.55,39.41-.46,0,0,40.21-27.28,42.2,20.17,0,0,33.83-5.09,15.92,26.92,0,0,13.54,1,14.34,4.93,0,0-53.69,9.72-79.32,3.18,0,0-27.75,19.11-51.25,6,0,0-38.93,6.69-49.92-9.79C44.63,74-7.77,80.06,1,45.32Z"/>
        <path fill="#ffffff" opacity="0.4" d="M4.26,48.6s20.7-32,58.52-5.28c0,0-21.9-29.27,10.35-39.12,0,0,40.61-7.86,43.39,22.2,0,0,26.67-38.55,39.41-.46,0,0,40.21-27.28,42.2,20.17,0,0,33.83-5.09,15.92,26.92,0,0,13.54,1,14.34,4.93,0,0-53.69,9.72-79.32,3.18,0,0-27.75,19.11-51.25,6,0,0-38.93,6.69-49.92-9.79C47.91,77.32-4.49,83.34,4.26,48.6Z"/>
    </g>
</svg>
