<svg id="Layer_2" data-name="Layer 2" xmlns="http://www.w3.org/2000/svg" viewBox="0 0 962.91 166.2"><defs><style>.cls-1{fill:#fff;opacity:0.8;}</style></defs><title>field</title><path class="cls-1" d="M952.4,75.2A165.38,165.38,0,0,1,950,112.71c-2.08,11.48-5.68,24.39-14.55,32.56-11.81,10.86-27.28,3.74-41.12,2.29-16.91-1.77-33,5.07-49.47,7.54-34.2,5.14-68.31-6.39-102.37-7.67-35.48-1.33-70.71,5.05-106.25,3.72-36-1.35-71.83-4.66-107.8-6-72.18-2.69-144.42-2.12-216.63-1.31-71.9.8-143.82,1.84-215.72.15-17.84-.42-35.76-.68-53.57-1.84-6.7-.44-13.83-1.59-17.48-7.89s-5-14.66-6.94-21.7C13.7,96.11,9.89,79.26,10,62.14A87.28,87.28,0,0,1,13.5,37.67c2.22-7.39,5.1-13.84,13.35-15.45S44,21.16,52.35,20.87q13.86-.5,27.74-.85,26.76-.7,53.53-1,54-.55,108.06.65Q263.37,20.17,285,21a4.34,4.34,0,0,0,4.71,1.14c1-.31,2-.58,3-.88l1.47.05a4.42,4.42,0,0,0,3.69-1.51c30.18-8.13,61.54-9.66,92.72-9.48,35.58.2,71.18,1.42,106.76,2.21,71.82,1.6,143.66,3.63,215.51,3.43,36-.09,72-.78,108-2.46,17.36-.81,34.68-2.13,52-3.06,14.38-.77,29.23-.93,43,3.9C941.77,23.36,951.18,50,952.4,75.2Z"/><path d="M955.4,40.35c9.74,23.84,8.9,52.83,3.77,77.68-2.44,11.81-6.78,24.17-15.3,33-10.49,10.9-24.25,11.37-38.3,8.55-9.22-1.84-17.8-3-27.18-1.45-8.54,1.38-16.86,3.9-25.33,5.6-17.49,3.52-35.22,2.78-52.82.59-17.94-2.23-35.75-5.72-53.83-6.74-18.48-1-37,.55-55.36,2a475.88,475.88,0,0,1-55.75,1.52c-18.43-.72-36.82-2.32-55.22-3.44-37.68-2.31-75.42-3.53-113.17-4.1-75.55-1.13-151.1.36-226.65,1-37.44.33-74.89.45-112.33,0q-28.34-.37-56.64-1.28c-9.33-.31-18.68-.56-28-1.1-6.55-.38-13.53-1.18-19.18-4.8-6.09-3.9-9.17-10.14-11.27-16.85-2.51-8-4.67-16.18-6.67-24.33C2.06,89.53-1,72.16.31,54.93c1-13.34,3.87-33.39,17.33-40.14,7-3.49,15.24-3.2,22.82-3.49q13.86-.53,27.74-1Q179.8,7,291.44,11.17a264.28,264.28,0,0,1,46-8.74C373-1.29,408.89.52,444.51,1.31L558.16,3.84c75,1.67,150.08,3.19,225.11,1q28.23-.81,56.45-2.38C856.43,1.55,873.24-.38,890,.06c14.71.39,29.93,3,42.38,11.32C943,18.44,950.61,28.63,955.4,40.35ZM950,112.71A165.38,165.38,0,0,0,952.4,75.2C951.18,50,941.77,23.36,915.92,14.3c-13.76-4.83-28.61-4.67-43-3.9-17.34.93-34.66,2.25-52,3.06-36,1.68-72,2.37-108,2.46-71.85.2-143.69-1.83-215.51-3.43-35.58-.79-71.18-2-106.76-2.21-31.18-.18-62.54,1.35-92.72,9.48a4.42,4.42,0,0,1-3.69,1.51l-1.47-.05c-1,.3-2,.57-3,.88A4.34,4.34,0,0,1,285,21q-21.69-.77-43.37-1.27-54-1.22-108.06-.65-26.76.27-53.53,1-13.87.36-27.74.85c-8.33.29-17.3-.25-25.5,1.35S15.72,30.28,13.5,37.67A87.28,87.28,0,0,0,10,62.14c-.13,17.12,3.68,34,8.12,50.41,1.91,7,3.25,15.33,6.94,21.7s10.78,7.45,17.48,7.89c17.81,1.16,35.73,1.42,53.57,1.84,71.9,1.69,143.82.65,215.72-.15,72.21-.81,144.45-1.38,216.63,1.31,36,1.35,71.84,4.66,107.8,6,35.54,1.33,70.77-5,106.25-3.72,34.06,1.28,68.17,12.81,102.37,7.67,16.46-2.47,32.56-9.31,49.47-7.54,13.84,1.45,29.31,8.57,41.12-2.29C944.36,137.1,948,124.19,950,112.71Z"/></svg>