<svg xmlns="http://www.w3.org/2000/svg" viewBox="0 0 226 155.56">
    <g id="Layer_1-2" data-name="Layer 1">
        <path fill="#ffffff" opacity="0.4" d="M222.1,69.17c0-13.34-10.85-24.39-24.59-25.59,1.46-3.14,3-6.57,2.27-10.14-7.39-37.27-71.69-48.8-88.48-6.34a27.06,27.06,0,0,0-13-3.66H86.17c-14.88,0-31.45,12-27,31.17,0,0-54.6-12.91-59.15,30.11v4.06c8,16.65,26.34,12.59,26.34,12.59a10.45,10.45,0,0,0-1.71,5c0,6.51,10.65,12.48,23.67,12.48H59.8a40.52,40.52,0,0,0,14.48-2.68,21.31,21.31,0,0,0-.28,3.41c-1.1,30.44,63,50.25,70.07,7.06,25.27,9.09,41.67-16.4,36.67-25.33C197.13,109.68,222.1,82.22,222.1,69.17Z"/>
        <path fill="#ffffff" opacity="0.4" d="M226,73.06c0-13.34-10.85-24.39-24.59-25.59,1.46-3.14,3-6.57,2.27-10.14C196.29.06,132-11.46,115.2,31a27.06,27.06,0,0,0-13-3.66H90.07c-14.88,0-31.45,12-27,31.17,0,0-54.6-12.91-59.15,30.11v4.06c8,16.65,26.34,12.59,26.34,12.59a10.45,10.45,0,0,0-1.71,5c0,6.51,10.65,12.48,23.67,12.48h11.5a40.52,40.52,0,0,0,14.48-2.68,21.31,21.31,0,0,0-.28,3.41c-1.1,30.44,63,50.25,70.07,7.06,25.27,9.09,41.67-16.4,36.67-25.33C201,113.58,226,86.12,226,73.06Z"/>
    </g>
</svg>
