<svg xmlns="http://www.w3.org/2000/svg" viewBox="0 0 534.9 150.41">
    <g id="Layer_1-2" data-name="Layer 1">
        <path fill="#ffffff" opacity="0.4" d="M288.62,63.15H268.12s0-.64,0-.81c0-7.54-26.37-5.77-26.37-5.77s6.31.55,10-13.85c.27-64.79-80.29-48.53-98.82,0v.67S105.62,21.56,96.21,58.3c-.68,8.55,6.94,19.26,6.94,19.26S2.06,52.65,0,82.91H309.46C309.46,71.38,300.08,63.15,288.62,63.15Z"/>
        <path fill="#ffffff" opacity="0.4" d="M291.92,64.8H271.41s0-.64,0-.81c0-7.54-26.37-5.77-26.37-5.77s6.31.55,10-13.85c.27-64.79-80.29-48.53-98.82,0V45S108.91,23.21,99.5,60c-.68,8.55,6.94,19.26,6.94,19.26S5.36,54.3,3.29,84.56H312.76C312.76,73,303.38,64.8,291.92,64.8Z"/>
        <path fill="#ffffff" opacity="0.4" d="M111.09,92.8c0,11.53,10.94,18.12,24.31,18.12h28a17.8,17.8,0,0,0-3.81,10.72v1.74c3.16,19.11,89.9,45.6,64.72.85.36,0,.72-.13,1.08-.13,0,0,32.81,17.36,32-11.1,0-.59,10.47-8.52-3.21-13.94,0,0,25.67.64,26.4,1.26-3.81,10.09,74.92,3.58,74.92,3.58s-.56,0,11.11.53c8.78,4.3,136,6.49,136,6.49C574,105.15,491.15,92.8,491.15,92.8s-111.2-3.19-118.31,0S111.09,92.8,111.09,92.8Z"/>
        <path fill="#ffffff" opacity="0.4" d="M114.38,94.44c0,11.53,10.94,18.12,24.31,18.12h28a17.8,17.8,0,0,0-3.81,10.72V125c3.16,19.11,89.9,45.6,64.72.85.36,0,.72-.13,1.08-.13,0,0,32.81,17.36,32-11.1,0-.59,10.47-8.52-3.21-13.94,0,0,25.67.64,26.4,1.26-3.81,10.09,74.92,3.58,74.92,3.58s-.56,0,11.11.53c8.78,4.3,136,6.49,136,6.49,71.53-5.76-11.37-18.12-11.37-18.12s-111.2-3.19-118.31,0S114.38,94.44,114.38,94.44Z"/>
    </g>
</svg>
