<svg xmlns="http://www.w3.org/2000/svg" viewBox="0 0 689.86 591.45"><defs><style>.cls-1{fill:#fff;opacity:0.5;}</style></defs><title>panel</title><g id="Layer_1" data-name="Layer 1"><path class="cls-1" d="M23.81,571.54c-1.74-18.08,1.5-37.4,4.52-55.17,3.17-18.69,7.31-37.2,10.6-55.87,3.23-18.31,5.6-36.77,5.72-55.38.14-19.76-1.75-39.45-3.54-59.11Q30.19,226.23,19.29,106.46l-4.74-52c4.21-1.32,5.27-8.35,0-9.58-5.13-1.19-5.44-7.88-3.61-12,3.09-6.9,13-8.39,19.62-9,19.22-1.77,38.63-2.33,57.9-3.42,40-2.25,80-4.29,120.07-5.67s80.06-2.06,120.1-1.61c39.79.44,79.46,2.61,119.19,4.61,39.43,2,78.84,2.6,118.28.46q29.77-1.61,59.4-5c8.82-1,17.7-2.72,26.57-3.14,8.28-.39,14.91,1.49,16.79,10.41,2,9.61,2.28,19.88,3.27,29.65s2,19.71,2.85,29.57c1.81,20,3.31,40.11,4.16,60.21,1.64,39.35-.17,78.46-4,117.64-3.88,39.51-9,78.92-10.86,118.6-1.75,38,3,77.34-5.78,114.72-6.84,29.29-24.37,59.42-54.21,69.74-17.63,6.09-36.86,6-55.29,6.7-20,.79-40.08,1.26-60.13,1.53-79.57,1.09-159.14-1-238.71.66-39.71.83-79.41,2.58-119,6.13-19.07,1.71-38.09,4.41-57.21,5.46a181.88,181.88,0,0,1-28-.37,108.27,108.27,0,0,1-14.3-2.38C27.34,577.33,24.27,576.39,23.81,571.54Z"/><path d="M15.13,538.92c4.19-39.2,15.94-77.25,18.85-116.61,1.49-20.26.26-40.57-1.48-60.76-1.78-20.7-3.75-41.38-5.63-62.06L4.13,49.8c-5.34-6.27-5.43-16.9-.72-23.89C12.74,12,34.25,13.56,48.77,12.72Q80,10.89,111.25,9.17c42-2.26,84-4.2,126-5.27s84.05-1.27,126.05-.06C404.57,5,445.7,8.26,486.92,9.33a989,989,0,0,0,124-4.56Q626.47,3.22,642,1.17c7.63-1,15.76-2.23,23.19.48,7.28,2.66,11.74,8.7,13.32,16.17,2,9.55,2.33,19.66,3.32,29.35,4.25,41.66,8,83.45,8,125.36.06,41.48-4.41,82.69-8.81,123.88-4.34,40.72-7.65,81.25-7.43,122.23.2,36.54,0,74.58-17.76,107.61-7.25,13.51-17.24,25.66-29.88,34.43C611,571,593.27,574.6,575.45,576c-40.85,3.16-82.16,3-123.11,3.16-83.48.3-167-1.74-250.44,1.88-20.66.9-41.31,2.14-61.92,3.85-20.16,1.67-40.23,4.38-60.4,5.85a206.36,206.36,0,0,1-29.94.32c-8.69-.63-18.71-1.34-26.73-5-7.35-3.33-9.06-10-9.22-17.54A234,234,0,0,1,15.13,538.92Zm23.8-78.42c-3.29,18.67-7.43,37.18-10.6,55.87-3,17.77-6.26,37.09-4.52,55.17.46,4.85,3.53,5.79,7.82,6.8a108.27,108.27,0,0,0,14.3,2.38,181.88,181.88,0,0,0,28,.37c19.12-1.05,38.14-3.75,57.21-5.46,39.57-3.55,79.27-5.3,119-6.13,79.57-1.65,159.14.43,238.71-.66,20.05-.27,40.09-.74,60.13-1.53,18.43-.72,37.66-.61,55.29-6.7,29.84-10.32,47.37-40.45,54.21-69.74,8.73-37.38,4-76.7,5.78-114.72,1.83-39.68,7-79.09,10.86-118.6,3.84-39.18,5.65-78.29,4-117.64-.85-20.1-2.35-40.17-4.16-60.21q-1.34-14.79-2.85-29.57c-1-9.77-1.24-20-3.27-29.65-1.88-8.92-8.51-10.8-16.79-10.41-8.87.42-17.75,2.12-26.57,3.14q-29.61,3.4-59.4,5c-39.44,2.14-78.85,1.53-118.28-.46-39.73-2-79.4-4.17-119.19-4.61-40-.45-80.09.24-120.1,1.61s-80.07,3.42-120.07,5.67c-19.27,1.09-38.68,1.65-57.9,3.42-6.61.62-16.53,2.11-19.62,9-1.83,4.09-1.52,10.78,3.61,12,5.29,1.23,4.23,8.26,0,9.58l4.74,52Q30.2,226.23,41.11,346c1.79,19.66,3.68,39.35,3.54,59.11C44.53,423.73,42.16,442.19,38.93,460.5Z"/></g></svg>