<svg id="Layer_1" data-name="Layer 1" xmlns="http://www.w3.org/2000/svg" viewBox="0 0 440.01 228.96"><title>button</title><path d="M435.6,130.28a342.31,342.31,0,0,1-6.41-48.05c-1.12-18-1.45-36.11-3.23-54.09q-.64-6.44-1.54-12.84c-.53-3.76-.86-7.69-3.21-10.82C416.89-1.28,409.64-.2,403.41.8c-35.3,5.67-70.57,11.56-105.85,17.34a5.07,5.07,0,0,0-4.43-1.29c-36.94,6.32-75.07,4.83-112.4,6.78Q124.15,26.6,67.82,33,35.81,36.57,4,41.27C1.78,41.58.33,44.09.28,46.09a963.25,963.25,0,0,0,2.64,98.34Q4.84,169,8,193.36c1.53,11.7,1.81,27.46,14.23,33.19,5.83,2.69,12.84,2.57,19.11,2.24a129.1,129.1,0,0,0,23.29-3.6c15.2-3.62,30-8.77,45.11-12.75a565.73,565.73,0,0,1,93.14-16.57,501.47,501.47,0,0,1,93.79.17,453.15,453.15,0,0,1,45.21,6.83c15.45,3.12,30.78,7.27,46.36,9.67,13,2,25.46.51,35.53-8.53,8.44-7.57,13.55-18.82,15.34-29.88C441.52,159.45,438.56,144.64,435.6,130.28Z"/></svg>